<?xml version="1.0" encoding="UTF-8" standalone="no"?>
<!-- Created with Inkscape (http://www.inkscape.org/) -->
<svg xmlns:inkscape="http://www.inkscape.org/namespaces/inkscape" xmlns:sodipodi="http://sodipodi.sourceforge.net/DTD/sodipodi-0.dtd" xmlns="http://www.w3.org/2000/svg" xmlns:svg="http://www.w3.org/2000/svg" width="512" height="512" viewBox="0 0 135.46667 135.46667" version="1.1" id="svg1" inkscape:version="1.3.2 (091e20e, 2023-11-25, custom)" sodipodi:docname="logo_inverted.svg">
  <defs id="defs1">
    <rect x="0" y="0" width="511.35489" height="511.35489" id="rect2"></rect>
    <rect x="128.52235" y="211.92515" width="250.20841" height="179.11094" id="rect1"></rect>
  </defs>
  <g inkscape:label="Layer 1" inkscape:groupmode="layer" id="layer1">
    <path style="display:inline;opacity:1;fill:#e8e9f3;stroke-width:0.264583;fill-opacity:1" id="path2-7" sodipodi:type="arc" sodipodi:cx="67.477531" sodipodi:cy="67.564621" sodipodi:rx="67.964867" sodipodi:ry="67.877304" sodipodi:start="0" sodipodi:end="6.2822042" sodipodi:open="true" sodipodi:arc-type="arc" d="M 135.4424,67.564621 A 67.964867,67.877304 0 0 1 67.494202,135.44192 67.964867,67.877304 0 0 1 -0.48732703,67.597918 67.964867,67.877304 0 0 1 67.427521,-0.31266473 67.964867,67.877304 0 0 1 135.44237,67.498026" inkscape:label="path2"></path>
    <path style="display:inline;opacity:1;fill:#272635;stroke-width:0.232895;fill-opacity:1" id="path2" sodipodi:type="arc" sodipodi:cx="67.614624" sodipodi:cy="67.611176" sodipodi:rx="59.824932" sodipodi:ry="59.747856" sodipodi:start="0" sodipodi:end="6.2822042" sodipodi:open="true" sodipodi:arc-type="arc" d="M 127.43956,67.611176 A 59.824932,59.747856 0 0 1 67.629298,127.35903 59.824932,59.747856 0 0 1 7.7896991,67.640485 59.824932,59.747856 0 0 1 67.570603,7.8633356 59.824932,59.747856 0 0 1 127.43953,67.552556" inkscape:label="path2"></path>
    <path d="m 75.76592,27.539405 c -0.501747,0 -1.003557,0.517741 -1.003557,0.931726 v 14.282333 h 15.052312 11.941905 c 1.80629,0 11.84114,0.517581 11.84114,9.625252 0,9.107672 -9.83415,9.314677 -11.84114,9.314677 H 89.814675 74.762363 v 47.711817 c 0,0.41399 0.50181,0.93173 1.003557,0.93173 h 13.045199 c 0.702445,0 1.003556,-0.51774 1.003556,-0.93173 V 77.010805 h 11.941905 c 1.90664,0 27.09447,-0.310467 27.09447,-24.632089 0,-24.321622 -23.88329,-24.839311 -27.09447,-24.839311 z" style="font-size:400px;font-family:Blanka;-inkscape-font-specification:Blanka;white-space:pre;shape-inside:url(#rect2);display:inline;fill:#e8e9f3" id="path3"></path>
    <path d="m 18.065048,27.539405 c -0.501747,0 -1.003557,0.517741 -1.003557,0.931726 v 14.075627 h 15.252816 11.740886 c 2.408386,0 11.841655,0.517065 11.841655,9.624736 0,9.107671 -8.530125,9.521899 -11.841655,9.521899 H 32.314307 17.061491 v 47.711817 c 0,0.41399 0.50181,0.93173 1.003557,0.93173 h 13.145451 c 0.602096,0 1.103808,-0.51774 1.103808,-0.93173 V 76.907452 h 8.630482 l 14.650785,32.808338 c 0.10035,0.31049 0.702508,0.62115 1.003557,0.62115 h 14.350028 c 0.802796,0 1.204353,-0.62118 0.903305,-1.34566 -5.01747,-11.488083 -10.436368,-22.872836 -15.453838,-34.567914 8.027952,-3.001392 14.751038,-9.625328 14.751038,-22.251872 0,-24.425119 -22.578748,-24.632089 -27.094471,-24.632089 z" style="font-size:400px;font-family:Blanka;-inkscape-font-specification:Blanka;white-space:pre;shape-inside:url(#rect2);display:inline;fill:#e8e9f3" id="path1"></path>
  </g>
</svg>
