<svg xmlns="http://www.w3.org/2000/svg" viewBox="0 0 135.467 135.467">
  <path fill="#2c2a4a" d="M135.442 67.565a67.965 67.877 0 0 1-67.948 67.877A67.965 67.877 0 0 1-.487 67.598 67.965 67.877 0 0 1 67.428-.312a67.965 67.877 0 0 1 68.014 67.81"/>
  <path fill="#e8e9f3" d="M127.44 67.611a59.825 59.748 0 0 1-59.81 59.748A59.825 59.748 0 0 1 7.79 67.64 59.825 59.748 0 0 1 67.57 7.863a59.825 59.748 0 0 1 59.87 59.69"/>
  <path fill="#2c2a4a" d="M18.065 27.54c-.502 0-1.004.517-1.004.931v14.076h26.994c2.409 0 11.842.517 11.842 9.624 0 9.108-8.53 9.522-11.842 9.522H17.061v47.712c0 .414.502.932 1.004.932H31.21c.603 0 1.104-.518 1.104-.932V76.907h8.63l14.652 32.809c.1.31.702.62 1.003.62h14.35c.803 0 1.205-.62.903-1.345C66.835 97.503 61.416 86.118 56.4 74.423c8.028-3.001 14.75-9.625 14.75-22.252 0-24.425-22.578-24.632-27.094-24.632zm57.7 0c-.5 0-1.003.517-1.003.931v14.282h26.995c1.806 0 11.84.518 11.84 9.626 0 9.107-9.833 9.314-11.84 9.314H74.762v47.712c0 .414.502.932 1.004.932H88.81c.703 0 1.004-.518 1.004-.932V77.011h11.942c1.906 0 27.094-.31 27.094-24.632 0-24.322-23.883-24.84-27.094-24.84z" font-family="Blanka" font-size="400" style="-inkscape-font-specification:Blanka;white-space:pre;shape-inside:url(#a)"/>
</svg>